<?xml version="1.0" encoding="utf-8"?>
<!-- Generator: Adobe Illustrator 16.0.3, SVG Export Plug-In . SVG Version: 6.00 Build 0)  -->
<!DOCTYPE svg PUBLIC "-//W3C//DTD SVG 1.1//EN" "http://www.w3.org/Graphics/SVG/1.1/DTD/svg11.dtd">
<svg version="1.1" id="Layer_1" xmlns="http://www.w3.org/2000/svg" xmlns:xlink="http://www.w3.org/1999/xlink" x="0px" y="0px"
	 width="800px" height="800px" viewBox="0 0 800 800" enable-background="new 0 0 800 800" xml:space="preserve">
<g>
	<path fill="#D1D6F7" d="M334.049,214.837c16.602-30.273,33.529-56.25,50.717-78.125c0.65-0.846,1.302-1.627,1.953-2.474
		c20.768-35.938,35.352-71.68,18.489-83.398l0,0c-10.938-7.552-26.823-7.813-43.425-4.167
		c-24.805,5.404-49.935,19.076-65.039,31.381c-19.791,16.08-37.435,36.588-52.539,58.463
		c-17.969,26.107-32.096,53.906-41.536,78.386c-9.636,25.065-16.536,51.823-20.508,80.469c-3.841,27.93-4.883,57.617-2.864,89.128
		c18.424,48.308,43.164,91.146,74.479,128.19c2.344,2.669,4.688,5.273,7.097,7.877c36.067,38.803,80.144,69.792,131.575,93.49l0,0
		c0.586,0.26,1.172,0.586,1.758,0.977c6.186-0.456,12.5-1.042,18.881-1.823c11.067-1.367,21.81-3.125,32.291-5.273
		c34.506-7.097,63.672-17.513,91.211-31.445c27.865-14.063,54.297-31.771,83.139-53.06c14.063-10.417,28.06-21.615,41.927-33.659
		c13.802-11.979,26.953-24.414,39.388-37.37l0,0c27.084-30.599,45.639-60.156,56.055-88.736c10.092-27.734,12.436-54.558,7.227-80.6
		c-4.817-24.284-20.572-52.8-40.494-80.208c-25.456-35.026-57.422-67.578-82.422-87.24c-10.742-8.463-21.354-15.56-31.771-21.289
		c-33.724-18.424-67.122-23.307-99.609-13.736c-33.138,9.766-66.146,34.439-98.372,75.064
		c-13.411,23.373-28.45,45.248-39.909,61.914c-3.125,4.558-5.859,8.529-10.091,14.975c-5.013,7.552-15.234,9.635-22.786,4.622
		C331.575,232.285,329.427,222.324,334.049,214.837L334.049,214.837z M126.953,444.46c-1.107,41.731,5.403,58.984,36.458,99.284
		c10.938,14.192,22.852,28.385,35.808,42.578c24.283,18.619,28.125,37.174,9.114,55.794l-9.114,10.156
		c-16.406,10.156-34.57,12.044-58.854-15.234l-36.067-45.769c-16.211-20.572-37.24-40.299-38.803-67.903
		c-0.26-5.144-0.064-10.417,0.586-15.886l-15.82,16.342c-5.143,6.51-9.31,13.216-12.239,20.182
		c-2.93,6.706-4.688,13.672-5.078,20.898c-1.367,24.154,22.461,61.264,53.841,96.225c38.151,42.513,86.264,80.208,114.909,88.411
		c45.313,13.086,95.313-44.792,137.239-93.229c5.729-6.641,11.328-13.086,16.797-19.271
		c-46.744-25.781-86.653-57.552-119.922-94.987c-2.734-3.06-5.403-6.119-8.008-9.244c-29.492-33.92-53.775-72.982-72.525-117.448
		L126.953,444.46L126.953,444.46z M389.908,648.171c-8.268,8.919-17.057,19.075-26.236,29.688
		c-48.178,55.729-105.6,122.136-171.094,103.32c-34.115-9.831-88.607-51.563-130.339-98.112
		C25.781,642.377-1.823,596.869,0.065,563.08c0.651-11.328,3.32-22.07,7.683-32.227c4.231-9.831,10.026-19.206,17.188-28.125l0,0
		c0.325-0.391,0.651-0.781,1.042-1.172l119.986-124.089c-1.432-30.339-0.13-59.245,3.646-86.654
		c4.297-30.924,11.849-60.091,22.396-87.63c10.352-26.823,25.716-57.161,45.117-85.352c16.731-24.219,36.523-47.136,58.854-65.3
		c18.359-14.908,48.828-31.51,78.841-38.021c24.675-5.403,49.609-4.167,69.075,9.375h0.065l0,0
		c18.099,12.565,22.461,32.292,18.88,54.948c19.011-14.063,38.347-23.959,58.008-29.688c41.211-12.109,82.943-6.25,124.545,16.471
		c12.305,6.706,24.479,14.779,36.393,24.219c27.019,21.289,61.394,56.25,88.737,93.815c22.396,30.794,40.3,63.737,46.159,93.164
		c6.314,31.836,3.58,64.519-8.659,98.047c-11.849,32.553-32.683,65.82-62.825,99.805c-0.131,0.195-0.326,0.326-0.456,0.521l0,0
		c-13.606,14.063-27.409,27.148-41.472,39.388c-13.997,12.175-28.646,23.894-43.945,35.222
		c-30.273,22.396-58.203,41.016-87.891,55.989c-30.013,15.169-61.783,26.563-99.414,34.31c-11.914,2.475-23.633,4.362-34.961,5.795
		C408.203,646.869,399.154,647.65,389.908,648.171L389.908,648.171z"/>
</g>
</svg>
