<?xml version="1.0" encoding="utf-8"?>
<!-- Generator: Adobe Illustrator 16.0.3, SVG Export Plug-In . SVG Version: 6.00 Build 0)  -->
<!DOCTYPE svg PUBLIC "-//W3C//DTD SVG 1.1//EN" "http://www.w3.org/Graphics/SVG/1.1/DTD/svg11.dtd">
<svg version="1.1" id="Capa_1" xmlns="http://www.w3.org/2000/svg" xmlns:xlink="http://www.w3.org/1999/xlink" x="0px" y="0px"
	 width="24px" height="24px" viewBox="0 0 24 24" enable-background="new 0 0 24 24" xml:space="preserve">
<path fill="#D1D6F7" d="M21.55,3.69c-0.28-0.18-0.64-0.21-0.95-0.08c-2.5,1.08-5.08,0.28-7.81-0.56C9.83,2.14,6.77,1.2,3.6,2.57
	C3.23,2.73,3,3.09,3,3.49v18.52h2V15.2c2.31-0.729,4.69,0,7.21,0.771c1.89,0.579,3.81,1.17,5.78,1.17c1.119,0,2.26-0.19,3.41-0.69
	c0.369-0.16,0.6-0.521,0.6-0.921V4.52c0-0.34-0.17-0.65-0.45-0.84V3.69z M8.81,4.06C8.65,4.03,8.5,4,8.34,3.98
	C8.5,4,8.65,4.03,8.81,4.06z M16.221,14.95C16.37,14.971,16.51,15,16.66,15.02C16.51,15,16.37,14.98,16.221,14.95z M20.01,8.87
	c-1,0.27-2,0.31-3,0.2v3c1,0.1,2,0.06,3-0.2v2.96c-0.98,0.311-1.98,0.34-3,0.23v-2.98c-1-0.1-2-0.34-3-0.62v2.96
	c-0.4-0.12-0.8-0.24-1.21-0.359c-0.59-0.181-1.19-0.36-1.79-0.531V10.56c-1-0.28-2-0.52-3-0.62v3c0.05,0,0.1,0.021,0.15,0.021
	c-0.38-0.04-0.76-0.08-1.14-0.08c-0.67,0-1.34,0.07-2.01,0.229V10.14c1-0.27,2-0.31,3-0.2v-3c-1-0.1-2-0.06-3,0.2V4.18
	c0.98-0.31,1.98-0.34,3-0.23v2.98c1,0.1,2,0.34,3,0.62V4.59c0.4,0.12,0.8,0.24,1.21,0.36c0.59,0.18,1.19,0.37,1.79,0.53v2.96
	c1,0.28,2,0.52,3,0.62V6.07c0.99,0.09,1.99,0.06,3-0.18v2.97V8.87z"/>
<path fill="#D1D6F7" d="M11,7.55v3c1,0.28,2,0.62,3,0.9v-3C13,8.17,12,7.83,11,7.55z"/>
</svg>
