<?xml version="1.0" encoding="utf-8"?>
<!-- Generator: Adobe Illustrator 16.0.3, SVG Export Plug-In . SVG Version: 6.00 Build 0)  -->
<!DOCTYPE svg PUBLIC "-//W3C//DTD SVG 1.1//EN" "http://www.w3.org/Graphics/SVG/1.1/DTD/svg11.dtd">
<svg version="1.1" id="Capa_1" xmlns="http://www.w3.org/2000/svg" xmlns:xlink="http://www.w3.org/1999/xlink" x="0px" y="0px"
	 width="24px" height="24px" viewBox="0 0 24 24" enable-background="new 0 0 24 24" xml:space="preserve">
<g id="Capa_1_1_">
	<g>
		<path fill="#D1D6F7" d="M15.861,21.318c0.852-0.478,1.676-0.951,2.51-1.408c0.773-0.424,1.434-0.15,1.705,0.689
			c0.07,0.215,0.143,0.43,0.209,0.645c0.191,0.617-0.084,1.174-0.691,1.383c-1.148,0.395-2.326,0.508-3.531,0.371
			c-0.381-0.043-0.674-0.232-0.879-0.555c-0.707-1.111-1.412-2.225-2.125-3.332c-1.104-1.721-2.213-3.437-3.322-5.152
			c-1.514-2.348-2.967-4.737-4.559-7.03c-1.156-1.663-2.201-3.395-3.34-5.067c-0.115-0.167-0.229-0.351-0.08-0.533
			C1.931,1.118,2.151,0.93,2.444,0.948c0.108,0.006,0.243,0.114,0.309,0.213c1.029,1.583,2.113,3.134,3.059,4.767
			c1.468,2.537,3.146,4.938,4.7,7.417c1.094,1.744,2.21,3.475,3.347,5.193c0.619,0.934,1.304,1.83,1.957,2.742
			C15.828,21.297,15.852,21.311,15.861,21.318z M5.375,6.604c2.657,4.128,5.297,8.224,7.941,12.333
			c0.102-0.064,0.188-0.119,0.297-0.189c-2.654-4.115-5.298-8.216-7.95-12.329C5.559,6.486,5.476,6.539,5.375,6.604z M14.098,20.268
			c0.5,0.732,0.982,1.455,1.486,2.164c0.121,0.17,0.324,0.26,0.578,0.238c-0.033-0.346-0.066-0.682-0.102-1.039
			c-0.302,0.088-0.461-0.063-0.588-0.281c-0.068-0.113-0.148-0.219-0.226-0.328c-0.235-0.344-0.474-0.688-0.718-1.037
			C14.381,20.082,14.252,20.166,14.098,20.268z"/>
	</g>
</g>
<g id="Capa_2">
</g>
</svg>
