<?xml version="1.0" encoding="utf-8"?>
<!-- Generator: Adobe Illustrator 16.0.3, SVG Export Plug-In . SVG Version: 6.00 Build 0)  -->
<!DOCTYPE svg PUBLIC "-//W3C//DTD SVG 1.1//EN" "http://www.w3.org/Graphics/SVG/1.1/DTD/svg11.dtd">
<svg version="1.1" id="injected-svg" transform="" xmlns="http://www.w3.org/2000/svg" xmlns:xlink="http://www.w3.org/1999/xlink"
	 x="0px" y="0px" width="24px" height="24px" viewBox="0 0 24 24" enable-background="new 0 0 24 24" xml:space="preserve">
<path fill="#D1D6F7" d="M19.08,15.08c3.4-3.4,3.891-8.45,1.09-11.25c-2.8-2.8-7.85-2.31-11.25,1.09C6.2,7.64,5.35,11.4,6.54,14.23
	c0,0.5-0.1,0.99-0.32,1.49c-0.31,0.559-0.65,1.108-1,1.639l-2.9,2.899c-0.29,0.29-0.29,0.771,0,1.062l0.35,0.35
	c0.29,0.29,0.77,0.29,1.06,0l2.9-2.9c0.53-0.35,1.08-0.688,1.64-1c0.5-0.22,0.98-0.31,1.49-0.318c0.83,0.35,1.75,0.529,2.69,0.529
	c2.271,0,4.71-0.989,6.62-2.91L19.08,15.08z M12.36,16L13,15.359l0.54,0.541c-0.399,0.07-0.8,0.108-1.19,0.1H12.36z M8.1,10.46
	L8.64,11L8,11.64c0-0.39,0.03-0.79,0.1-1.19V10.46z M15,5.36l1.65,1.65L15,8.66l-1.65-1.65L15,5.36z M13,6.65l-1.37-1.37
	c0.72-0.49,1.49-0.83,2.25-1.04L14.65,5.01L13,6.66V6.65z M19.9,9.55l-0.541-0.54L20,8.37c0,0.39-0.029,0.79-0.1,1.19V9.55z
	 M13,14.65L11.35,13L13,11.35L14.65,13L13,14.65z M15,13.359l1.37,1.371c-0.72,0.479-1.49,0.83-2.25,1.039L13.35,15L15,13.35V13.359
	z M9.43,14.93l1.57-1.57l1.65,1.65l-0.95,0.95c-0.86-0.12-1.64-0.46-2.27-1.021V14.93z M9.08,14.58c-0.56-0.63-0.9-1.42-1.02-2.27
	l0.95-0.95l1.65,1.65l-1.57,1.57H9.08z M13.359,11.01l1.649-1.65l1.65,1.65l-1.65,1.65L13.359,11.01z M15.359,9.01l1.649-1.65
	l1.65,1.65l-1.65,1.65L15.359,9.01z M19.01,9.36l0.77,0.77c-0.209,0.76-0.559,1.53-1.038,2.25l-1.37-1.37l1.648-1.65H19.01z
	 M19.01,8.65L17.359,7l1.57-1.57c0.561,0.63,0.899,1.42,1.021,2.27L19,8.65H19.01z M17.01,6.65L15.359,5l0.939-0.94
	c0.86,0.12,1.631,0.46,2.271,1.02L17.01,6.64V6.65z M14.66,9l-1.65,1.65L11.36,9l1.65-1.65L14.66,9z M12.66,11l-1.65,1.65L9.36,11
	l1.65-1.65L12.66,11z M9.01,10.65L8.24,9.88C8.45,9.12,8.8,8.35,9.28,7.63L10.65,9L9,10.65H9.01z M16.79,14.43L15.359,13l1.649-1.65
	l1.431,1.429c-0.229,0.301-0.479,0.601-0.76,0.881c-0.279,0.279-0.58,0.529-0.881,0.76L16.79,14.43z M15.55,4c0,0,0.07,0,0.101,0
	L15.01,4.64L14.471,4.1C14.83,4.03,15.2,3.99,15.55,3.99V4z M11.23,5.58l1.43,1.43l-1.65,1.65L9.58,7.23
	c0.23-0.3,0.48-0.6,0.76-0.88c0.28-0.28,0.58-0.53,0.88-0.76L11.23,5.58z"/>
</svg>
